G04*
G04 #@! TF.GenerationSoftware,Altium Limited,Altium Designer,19.1.7 (138)*
G04*
G04 Layer_Color=32896*
%FSLAX24Y24*%
%MOIN*%
G70*
G01*
G75*
%ADD10C,0.0079*%
%ADD11C,0.0039*%
%ADD12C,0.0050*%
%ADD44C,0.0027*%
D10*
X5615Y-5504D02*
X6285D01*
X5332Y-5996D02*
X6285D01*
X7361Y-5121D02*
X7539D01*
Y-3979D01*
X7361D02*
X7539D01*
X7361Y-5121D02*
Y-3979D01*
X6810Y-5141D02*
X7224D01*
D11*
X4220Y-10652D02*
Y-8250D01*
X6780D01*
Y-10652D02*
Y-8250D01*
X2543Y-6515D02*
X2857D01*
X2543Y-5885D02*
X2857D01*
D12*
X4750Y-11300D02*
X4683D01*
X4717D01*
Y-11500D01*
X4750D01*
X4683D01*
X4450Y-11333D02*
X4483Y-11300D01*
X4550D01*
X4583Y-11333D01*
Y-11467D01*
X4550Y-11500D01*
X4483D01*
X4450Y-11467D01*
X4383Y-11500D02*
X4317D01*
X4350D01*
Y-11300D01*
X4383Y-11333D01*
X6950Y-5650D02*
Y-5850D01*
X6850D01*
X6817Y-5817D01*
Y-5683D01*
X6850Y-5650D01*
X6950D01*
X6750Y-5850D02*
X6683D01*
X6717D01*
Y-5650D01*
X6750Y-5683D01*
X6900Y-5500D02*
Y-5300D01*
X6800D01*
X6767Y-5333D01*
Y-5400D01*
X6800Y-5433D01*
X6900D01*
X6833D02*
X6767Y-5500D01*
X6700D02*
X6633D01*
X6667D01*
Y-5300D01*
X6700Y-5333D01*
X6717Y-3433D02*
X6750Y-3400D01*
X6817D01*
X6850Y-3433D01*
Y-3567D01*
X6817Y-3600D01*
X6750D01*
X6717Y-3567D01*
X6517Y-3600D02*
X6650D01*
X6517Y-3467D01*
Y-3433D01*
X6550Y-3400D01*
X6617D01*
X6650Y-3433D01*
X6850Y-3950D02*
Y-3750D01*
X6750D01*
X6717Y-3783D01*
Y-3850D01*
X6750Y-3883D01*
X6850D01*
X6783D02*
X6717Y-3950D01*
X6517D02*
X6650D01*
X6517Y-3817D01*
Y-3783D01*
X6550Y-3750D01*
X6617D01*
X6650Y-3783D01*
X1750Y-3600D02*
Y-3400D01*
X1650D01*
X1617Y-3433D01*
Y-3500D01*
X1650Y-3533D01*
X1750D01*
X1683D02*
X1617Y-3600D01*
X1550Y-3567D02*
X1517Y-3600D01*
X1450D01*
X1417Y-3567D01*
Y-3433D01*
X1450Y-3400D01*
X1517D01*
X1550Y-3433D01*
Y-3467D01*
X1517Y-3500D01*
X1417D01*
X1700Y-4450D02*
Y-4250D01*
X1600D01*
X1567Y-4283D01*
Y-4350D01*
X1600Y-4383D01*
X1700D01*
X1633D02*
X1567Y-4450D01*
X1500D02*
X1433D01*
X1467D01*
Y-4250D01*
X1500Y-4283D01*
X1333D02*
X1300Y-4250D01*
X1233D01*
X1200Y-4283D01*
Y-4417D01*
X1233Y-4450D01*
X1300D01*
X1333Y-4417D01*
Y-4283D01*
X2850Y-6700D02*
Y-6900D01*
X2750D01*
X2717Y-6867D01*
Y-6733D01*
X2750Y-6700D01*
X2850D01*
X2650D02*
X2517D01*
Y-6733D01*
X2650Y-6867D01*
Y-6900D01*
X1800Y-5700D02*
Y-5500D01*
X1700D01*
X1667Y-5533D01*
Y-5600D01*
X1700Y-5633D01*
X1800D01*
X1733D02*
X1667Y-5700D01*
X1600Y-5533D02*
X1567Y-5500D01*
X1500D01*
X1467Y-5533D01*
Y-5567D01*
X1500Y-5600D01*
X1467Y-5633D01*
Y-5667D01*
X1500Y-5700D01*
X1567D01*
X1600Y-5667D01*
Y-5633D01*
X1567Y-5600D01*
X1600Y-5567D01*
Y-5533D01*
X1567Y-5600D02*
X1500D01*
X5000Y-5400D02*
Y-5200D01*
X4900D01*
X4867Y-5233D01*
Y-5300D01*
X4900Y-5333D01*
X5000D01*
X4933D02*
X4867Y-5400D01*
X4800Y-5200D02*
X4667D01*
Y-5233D01*
X4800Y-5367D01*
Y-5400D01*
X4817Y-3983D02*
X4850Y-3950D01*
X4917D01*
X4950Y-3983D01*
Y-4117D01*
X4917Y-4150D01*
X4850D01*
X4817Y-4117D01*
X4617Y-3950D02*
X4683Y-3983D01*
X4750Y-4050D01*
Y-4117D01*
X4717Y-4150D01*
X4650D01*
X4617Y-4117D01*
Y-4083D01*
X4650Y-4050D01*
X4750D01*
X3717Y-2933D02*
X3750Y-2900D01*
X3817D01*
X3850Y-2933D01*
Y-3067D01*
X3817Y-3100D01*
X3750D01*
X3717Y-3067D01*
X3517Y-2900D02*
X3650D01*
Y-3000D01*
X3583Y-2967D01*
X3550D01*
X3517Y-3000D01*
Y-3067D01*
X3550Y-3100D01*
X3617D01*
X3650Y-3067D01*
X4000Y-2550D02*
Y-2350D01*
X3900D01*
X3867Y-2383D01*
Y-2450D01*
X3900Y-2483D01*
X4000D01*
X3933D02*
X3867Y-2550D01*
X3667Y-2350D02*
X3733Y-2383D01*
X3800Y-2450D01*
Y-2517D01*
X3767Y-2550D01*
X3700D01*
X3667Y-2517D01*
Y-2483D01*
X3700Y-2450D01*
X3800D01*
X7947Y-3657D02*
Y-3523D01*
X7980Y-3490D01*
X8047D01*
X8080Y-3523D01*
Y-3657D01*
X8047Y-3690D01*
X7980D01*
X8013Y-3623D02*
X7947Y-3690D01*
X7980D02*
X7947Y-3657D01*
X7880Y-3690D02*
X7813D01*
X7847D01*
Y-3490D01*
X7880Y-3523D01*
D44*
X4591Y-6236D02*
G03*
X4591Y-6263I0J-13D01*
G01*
D02*
G03*
X4591Y-6236I0J13D01*
G01*
M02*
