G04*
G04 #@! TF.GenerationSoftware,Altium Limited,Altium Designer,19.1.7 (138)*
G04*
G04 Layer_Color=8421504*
%FSLAX24Y24*%
%MOIN*%
G70*
G01*
G75*
%ADD13R,0.0492X0.0295*%
%ADD14R,0.0378X0.0547*%
%ADD15R,0.1220X0.0689*%
%ADD16R,0.1138X0.0756*%
%ADD17R,0.0551X0.0374*%
%ADD18R,0.0600X0.0256*%
%ADD19R,0.0374X0.0551*%
D13*
X4850Y-9250D02*
D03*
X6150D02*
D03*
Y-10550D02*
D03*
X4850D02*
D03*
X8350D02*
D03*
X7050D02*
D03*
Y-9250D02*
D03*
X8350D02*
D03*
X7250Y-8450D02*
D03*
X5950D02*
D03*
D14*
X6231Y-11450D02*
D03*
X6869D02*
D03*
X1528Y-8500D02*
D03*
X2166D02*
D03*
X1528Y-9500D02*
D03*
X2166D02*
D03*
D15*
X5500Y-6508D02*
D03*
Y-7492D02*
D03*
X7600Y-6508D02*
D03*
Y-7492D02*
D03*
D16*
X5500Y-3446D02*
D03*
Y-5454D02*
D03*
X7650Y-3446D02*
D03*
Y-5454D02*
D03*
D17*
X4100Y-6176D02*
D03*
Y-6924D02*
D03*
D18*
X4068Y-3700D02*
D03*
Y-4200D02*
D03*
Y-4700D02*
D03*
Y-5200D02*
D03*
X1932D02*
D03*
Y-4700D02*
D03*
Y-4200D02*
D03*
Y-3700D02*
D03*
D19*
X2274Y-10250D02*
D03*
X1526D02*
D03*
X2274Y-11050D02*
D03*
X1526D02*
D03*
M02*
