G04*
G04 #@! TF.GenerationSoftware,Altium Limited,Altium Designer,19.1.7 (138)*
G04*
G04 Layer_Physical_Order=2*
G04 Layer_Color=16711680*
%FSLAX24Y24*%
%MOIN*%
G70*
G01*
G75*
%ADD14R,0.0378X0.0547*%
%ADD19R,0.0374X0.0551*%
%ADD30C,0.0100*%
%ADD31C,0.0650*%
%ADD32R,0.0650X0.0650*%
%ADD33C,0.0200*%
%ADD34R,0.0630X0.1181*%
%ADD35R,0.2283X0.2441*%
%ADD36R,0.0331X0.0181*%
%ADD37R,0.0528X0.0709*%
%ADD38R,0.0413X0.0236*%
D14*
X5581Y-3700D02*
D03*
X6219D02*
D03*
X3681Y-4250D02*
D03*
X4319D02*
D03*
X4369Y-3500D02*
D03*
X3731D02*
D03*
D19*
X5526Y-5100D02*
D03*
X6274D02*
D03*
X5526Y-4400D02*
D03*
X6274D02*
D03*
X2126Y-3500D02*
D03*
X2874D02*
D03*
X2126Y-4350D02*
D03*
X2874D02*
D03*
X2126Y-5350D02*
D03*
X2874D02*
D03*
X4374Y-5250D02*
D03*
X3626D02*
D03*
X4326Y-2750D02*
D03*
X5074D02*
D03*
D30*
X9500Y-11500D02*
Y-9500D01*
X8350Y-12650D02*
X9500Y-11500D01*
X4350Y-12650D02*
X8350D01*
X3750Y-12050D02*
X4350Y-12650D01*
X3750Y-12050D02*
Y-9200D01*
Y-8200D02*
X5359D01*
X5993Y-7566D01*
X6135D01*
X6400Y-7301D01*
X4850Y-3650D02*
X5300Y-3200D01*
X4850Y-4596D02*
Y-3650D01*
Y-4596D02*
X4900Y-4646D01*
Y-4854D02*
Y-4646D01*
X5100Y-4400D02*
X5326D01*
X5476Y-4550D01*
X6403Y-5991D02*
X6500Y-6089D01*
Y-6250D02*
Y-6089D01*
X4511Y-5024D02*
X4729D01*
X4597Y-4674D02*
X4650Y-4727D01*
X4729Y-5024D02*
X4900Y-4854D01*
X4650Y-4750D02*
Y-4727D01*
X3123Y-3623D02*
X3300Y-3800D01*
X2997Y-3623D02*
X3123D01*
X2874Y-3500D02*
X2997Y-3623D01*
X4300Y-3415D02*
Y-2750D01*
Y-3531D02*
Y-3415D01*
X3200Y-4870D02*
X3270Y-4800D01*
X3200Y-5024D02*
Y-4870D01*
X2874Y-5350D02*
X3200Y-5024D01*
X4369Y-3500D02*
Y-3415D01*
X4319Y-4250D02*
Y-3500D01*
X3250Y-4800D02*
X3270D01*
X2550Y-4900D02*
Y-4850D01*
X2126Y-5324D02*
X2550Y-4900D01*
X3731Y-3500D02*
X3750D01*
X2874D02*
X3681D01*
X1850Y-9000D02*
Y-8700D01*
X1950Y-8600D01*
X5526Y-4550D02*
Y-4400D01*
X3681Y-5195D02*
Y-4335D01*
X4068Y-4674D02*
X4597D01*
X3980Y-4586D02*
X4068Y-4674D01*
X3980Y-4586D02*
Y-4532D01*
X3921Y-4474D02*
X3980Y-4532D01*
X3820Y-4474D02*
X3921D01*
X3681Y-4335D02*
X3820Y-4474D01*
X4374Y-6176D02*
Y-5161D01*
X2400Y-2750D02*
X2900Y-2250D01*
X1950Y-2750D02*
X2400D01*
X2700D02*
X4300D01*
X2450Y-3000D02*
X2700Y-2750D01*
X2126Y-5324D02*
X2126Y-5324D01*
Y-5350D02*
Y-5324D01*
X2126Y-5274D02*
Y-4350D01*
Y-3500D01*
X2874Y-4350D02*
X3581D01*
X3626Y-5250D02*
Y-5161D01*
Y-5320D02*
Y-5250D01*
X3542Y-4026D02*
X3681Y-4165D01*
X2126Y-5350D02*
Y-5324D01*
X2126Y-5300D02*
X2908Y-6082D01*
X3145D01*
X3263Y-6200D01*
X6750Y-3844D02*
Y-3146D01*
X5074Y-2750D02*
X6354D01*
X6750Y-3146D01*
X6300Y-3519D02*
Y-3050D01*
Y-3519D02*
X6350Y-3569D01*
X6470Y-4124D02*
X6750Y-3844D01*
X6219Y-3700D02*
X6350Y-3569D01*
X6950Y-3850D02*
Y-2850D01*
X2900Y-2250D02*
X7550D01*
X8750Y-3450D01*
X6950Y-3850D02*
X7017Y-3917D01*
Y-4176D02*
Y-3917D01*
X5526Y-5100D02*
Y-4550D01*
X6850D02*
X7883D01*
X8750Y-4500D02*
Y-3450D01*
X8326Y-4924D02*
X8750Y-4500D01*
X7017Y-4924D02*
X8326D01*
X3489Y-5024D02*
X3626Y-5161D01*
X1300Y-6796D02*
Y-2800D01*
X1950Y-8600D02*
Y-7446D01*
X1300Y-6796D02*
X1950Y-7446D01*
X2200Y-7750D02*
Y-7100D01*
X550Y-7550D02*
X1700D01*
X500Y-7500D02*
X550Y-7550D01*
X2200Y-7100D02*
X2500Y-6800D01*
X4300Y-12100D02*
X6250D01*
X4000Y-11800D02*
X4300Y-12100D01*
X4000Y-11800D02*
Y-10550D01*
X2774Y-5450D02*
X2874Y-5350D01*
X2500Y-6800D02*
X3750D01*
X4374Y-6176D01*
X5300Y-3200D02*
X5756D01*
X6032Y-3476D01*
X6080D01*
X6219Y-3615D01*
X4374Y-5161D02*
X4511Y-5024D01*
X2137Y-7010D02*
X2200Y-7073D01*
X2137Y-7010D02*
Y-6200D01*
X6274Y-4311D02*
X6462Y-4124D01*
X6470D01*
X5526Y-4400D02*
Y-3755D01*
X5382Y-5741D02*
X5422Y-5700D01*
X5382Y-5815D02*
Y-5741D01*
X4720Y-6477D02*
X5382Y-5815D01*
X4720Y-7040D02*
Y-6477D01*
X4600Y-7159D02*
X4720Y-7040D01*
X7800Y-8450D02*
X8100D01*
X8150Y-8500D01*
X9500D01*
X7800Y-9150D02*
Y-8450D01*
X6995Y-9955D02*
X7800Y-9150D01*
X5500Y-9955D02*
X6995D01*
X1100Y-11650D02*
Y-8000D01*
Y-11650D02*
X1400Y-11950D01*
X2750D01*
X2950Y-11750D01*
Y-11250D01*
X2750Y-11050D02*
X2950Y-11250D01*
X2750Y-10250D02*
X3200Y-9800D01*
Y-7076D01*
X6274Y-5100D02*
Y-4400D01*
Y-5100D02*
X6403Y-5229D01*
Y-5700D02*
Y-5229D01*
X6403Y-5991D02*
Y-5750D01*
D31*
X3750Y-9200D02*
D03*
X5581Y-850D02*
D03*
X7550D02*
D03*
X9500Y-2500D02*
D03*
Y-3500D02*
D03*
Y-4500D02*
D03*
Y-5500D02*
D03*
Y-6500D02*
D03*
Y-7500D02*
D03*
Y-8500D02*
D03*
X500Y-2500D02*
D03*
Y-3500D02*
D03*
Y-4500D02*
D03*
Y-5500D02*
D03*
Y-6500D02*
D03*
Y-7500D02*
D03*
Y-8500D02*
D03*
D32*
X3750Y-8200D02*
D03*
X9500Y-9500D02*
D03*
X500D02*
D03*
D33*
X5100Y-4400D02*
D03*
X4650Y-4750D02*
D03*
X3300Y-3800D02*
D03*
X3250Y-4800D02*
D03*
X2550Y-4850D02*
D03*
X1850Y-9000D02*
D03*
X1950Y-2750D02*
D03*
X2450Y-3000D02*
D03*
X6300Y-3050D02*
D03*
X6950Y-2850D02*
D03*
X6850Y-4550D02*
D03*
X2200Y-7750D02*
D03*
X1700Y-7550D02*
D03*
X2200Y-7100D02*
D03*
X1300Y-2800D02*
D03*
X6250Y-12100D02*
D03*
X4000Y-10550D02*
D03*
X7800Y-8450D02*
D03*
X1100Y-8000D02*
D03*
X2750Y-11050D02*
D03*
Y-10250D02*
D03*
X3200Y-7076D02*
D03*
X6500Y-6250D02*
D03*
D34*
X4600Y-7159D02*
D03*
X6400D02*
D03*
D35*
X5500Y-9955D02*
D03*
D36*
X6403Y-5750D02*
D03*
X5497D02*
D03*
D37*
X2137Y-6200D02*
D03*
X3263D02*
D03*
D38*
X7017Y-4924D02*
D03*
Y-4176D02*
D03*
X7883Y-4550D02*
D03*
M02*
