G04*
G04 #@! TF.GenerationSoftware,Altium Limited,Altium Designer,19.1.7 (138)*
G04*
G04 Layer_Physical_Order=1*
G04 Layer_Color=255*
%FSLAX24Y24*%
%MOIN*%
G70*
G01*
G75*
%ADD13R,0.0492X0.0295*%
%ADD14R,0.0378X0.0547*%
%ADD15R,0.1220X0.0689*%
%ADD16R,0.1138X0.0756*%
%ADD17R,0.0551X0.0374*%
%ADD18R,0.0600X0.0256*%
%ADD19R,0.0374X0.0551*%
%ADD30C,0.0100*%
%ADD31C,0.0650*%
%ADD32R,0.0650X0.0650*%
%ADD33C,0.0200*%
D13*
X4850Y-9250D02*
D03*
X6150D02*
D03*
Y-10550D02*
D03*
X4850D02*
D03*
X8350D02*
D03*
X7050D02*
D03*
Y-9250D02*
D03*
X8350D02*
D03*
X7250Y-8450D02*
D03*
X5950D02*
D03*
D14*
X6231Y-11450D02*
D03*
X6869D02*
D03*
X1528Y-8500D02*
D03*
X2166D02*
D03*
X1528Y-9500D02*
D03*
X2166D02*
D03*
D15*
X5500Y-6508D02*
D03*
Y-7492D02*
D03*
X7600Y-6508D02*
D03*
Y-7492D02*
D03*
D16*
X5500Y-3446D02*
D03*
Y-5454D02*
D03*
X7650Y-3446D02*
D03*
Y-5454D02*
D03*
D17*
X4100Y-6176D02*
D03*
Y-6924D02*
D03*
D18*
X4068Y-3700D02*
D03*
Y-4200D02*
D03*
Y-4700D02*
D03*
Y-5200D02*
D03*
X1932D02*
D03*
Y-4700D02*
D03*
Y-4200D02*
D03*
Y-3700D02*
D03*
D19*
X2274Y-10250D02*
D03*
X1526D02*
D03*
X2274Y-11050D02*
D03*
X1526D02*
D03*
D30*
X2200Y-8500D02*
Y-7750D01*
X6500Y-6250D02*
Y-6200D01*
X1528Y-10250D02*
Y-9500D01*
X4700Y-4446D02*
X4900Y-4646D01*
X4700Y-4446D02*
Y-4350D01*
X4550Y-4200D02*
X4700Y-4350D01*
X4900Y-4895D02*
Y-4646D01*
X5100Y-4400D02*
X6700D01*
X6850Y-4550D01*
X4218Y-4750D02*
X4650D01*
X4168Y-4700D02*
X4218Y-4750D01*
X4750Y-5045D02*
X4900Y-4895D01*
X4750Y-5526D02*
Y-5045D01*
X4118Y-4750D02*
X4168Y-4700D01*
X4068D02*
X4118Y-4750D01*
X3300Y-4254D02*
Y-3800D01*
X3250Y-4304D02*
X3300Y-4254D01*
X3250Y-4304D02*
X3550Y-4604D01*
X2450Y-4000D02*
X3200Y-4750D01*
X2450Y-4000D02*
Y-3000D01*
X3550Y-5100D02*
Y-4604D01*
X1550Y-9441D02*
X1850Y-9141D01*
X1550Y-9478D02*
Y-9441D01*
X1850Y-9141D02*
Y-9000D01*
X4326Y-5950D02*
X4750Y-5526D01*
X3650Y-5200D02*
X4068D01*
X3550Y-5100D02*
X3650Y-5200D01*
X1528Y-11048D02*
Y-10250D01*
X2500Y-2450D02*
X3750Y-3700D01*
X1650Y-2450D02*
X2500D01*
X1300Y-2800D02*
X1650Y-2450D01*
X1950Y-2750D02*
Y-2735D01*
X1932Y-2718D02*
X1950Y-2735D01*
X1932Y-3700D02*
Y-2718D01*
X3750Y-3700D02*
X4068D01*
X2550Y-4850D02*
Y-4800D01*
X2450Y-4700D02*
X2550Y-4800D01*
X1932Y-4700D02*
X2450D01*
X6300Y-3050D02*
X6450D01*
X6650Y-2850D01*
X6950D01*
X2200Y-9466D02*
Y-8500D01*
X1750Y-7500D02*
X2304D01*
X1700Y-7550D02*
X1750Y-7500D01*
X2354Y-7550D02*
X3450D01*
X2304Y-7500D02*
X2354Y-7550D01*
X1450Y-4500D02*
X1672Y-4278D01*
X3450Y-7550D02*
X3874Y-7126D01*
X1450Y-8422D02*
Y-4500D01*
Y-8422D02*
X1482Y-8454D01*
X1932Y-6832D02*
X2200Y-7100D01*
X6250Y-12100D02*
Y-11469D01*
X4446Y-11350D02*
X5350D01*
X2596Y-9500D02*
X4446Y-11350D01*
X2166Y-9500D02*
X2596D01*
X4000Y-10550D02*
X4850D01*
X6149Y-10648D02*
X6348D01*
X6051Y-10550D02*
X6149Y-10648D01*
X7250Y-8450D02*
X7800D01*
X4068Y-4200D02*
X4550D01*
X4326Y-6039D02*
Y-5950D01*
X4189Y-6176D02*
X4326Y-6039D01*
X4100Y-6176D02*
X4189D01*
X1500Y-3700D02*
X1932D01*
X1100Y-4100D02*
X1500Y-3700D01*
X1100Y-8000D02*
Y-4100D01*
X2274Y-11050D02*
X2750D01*
X2274Y-10250D02*
X2750D01*
X3874Y-7126D02*
Y-7061D01*
X3200Y-7076D02*
X3874Y-6402D01*
Y-6313D01*
X4011Y-6176D01*
X4100D01*
X500Y-8500D02*
X1528D01*
X1672Y-4278D02*
X1854D01*
X1932Y-4200D01*
X6500Y-7900D02*
Y-6250D01*
X6146Y-8254D02*
X6500Y-7900D01*
X6146Y-8352D02*
Y-8254D01*
X6049Y-8450D02*
X6146Y-8352D01*
X5950Y-8450D02*
X6049D01*
X7050Y-9250D02*
Y-8900D01*
Y-9600D02*
Y-9250D01*
X7250Y-8700D02*
Y-8450D01*
X7050Y-8900D02*
X7250Y-8700D01*
X7050Y-9600D02*
X7650Y-10200D01*
Y-10750D02*
Y-10200D01*
X7450Y-10950D02*
X7650Y-10750D01*
X6650Y-10950D02*
X7450D01*
X6348Y-10648D02*
X6650Y-10950D01*
X5350Y-11350D02*
X5954Y-10746D01*
Y-10648D01*
X6051Y-10550D01*
X1932Y-6832D02*
Y-5200D01*
X3874Y-7061D02*
X4011Y-6924D01*
X4100D01*
X500Y-9500D02*
X1528D01*
X4850Y-10550D02*
Y-9250D01*
X6869Y-11450D02*
X7849D01*
X8350Y-10950D01*
Y-10550D01*
Y-9250D01*
X7050Y-10550D02*
Y-10151D01*
X6346Y-9446D02*
X7050Y-10151D01*
X6346Y-9446D02*
Y-9348D01*
X6248Y-9250D02*
X6346Y-9348D01*
X6150Y-9250D02*
X6248D01*
X6150D02*
Y-9000D01*
X5950Y-8800D02*
X6150Y-9000D01*
X5950Y-8800D02*
Y-8450D01*
X4850Y-9250D02*
Y-8142D01*
X5064Y-7928D01*
Y-7787D01*
X5359Y-7492D01*
X5500D01*
X8350Y-9250D02*
Y-8300D01*
X7978Y-7928D02*
X8350Y-8300D01*
X7978Y-7928D02*
Y-7787D01*
X7684Y-7492D02*
X7978Y-7787D01*
X7600Y-7492D02*
X7684D01*
X7650Y-6458D02*
Y-5454D01*
X7550Y-3346D02*
Y-850D01*
X5500Y-6508D02*
Y-5454D01*
X5581Y-3368D02*
Y-850D01*
D31*
X3750Y-9200D02*
D03*
X5581Y-850D02*
D03*
X7550D02*
D03*
X9500Y-2500D02*
D03*
Y-3500D02*
D03*
Y-4500D02*
D03*
Y-5500D02*
D03*
Y-6500D02*
D03*
Y-7500D02*
D03*
Y-8500D02*
D03*
X500Y-2500D02*
D03*
Y-3500D02*
D03*
Y-4500D02*
D03*
Y-5500D02*
D03*
Y-6500D02*
D03*
Y-7500D02*
D03*
Y-8500D02*
D03*
D32*
X3750Y-8200D02*
D03*
X9500Y-9500D02*
D03*
X500D02*
D03*
D33*
X5100Y-4400D02*
D03*
X4650Y-4750D02*
D03*
X3300Y-3800D02*
D03*
X3250Y-4800D02*
D03*
X2550Y-4850D02*
D03*
X1850Y-9000D02*
D03*
X1950Y-2750D02*
D03*
X2450Y-3000D02*
D03*
X6300Y-3050D02*
D03*
X6950Y-2850D02*
D03*
X6850Y-4550D02*
D03*
X2200Y-7750D02*
D03*
X1700Y-7550D02*
D03*
X2200Y-7100D02*
D03*
X1300Y-2800D02*
D03*
X6250Y-12100D02*
D03*
X4000Y-10550D02*
D03*
X7800Y-8450D02*
D03*
X1100Y-8000D02*
D03*
X2750Y-11050D02*
D03*
Y-10250D02*
D03*
X3200Y-7076D02*
D03*
X6500Y-6250D02*
D03*
M02*
