M48
;Layer_Color=9474304
;FILE_FORMAT=2:4
INCH,LZ
;TYPE=PLATED
T1F00S00C0.0100
T2F00S00C0.0433
%
T01
X00275Y-01105
Y-01025
X004Y-01055
X00185Y-009
X0022Y-00775
Y-0071
X0017Y-00755
X0011Y-008
X0032Y-007076
X00325Y-0048
X00255Y-00485
X0033Y-0038
X00245Y-003
X00195Y-00275
X0013Y-0028
X0063Y-00305
X00695Y-00285
X00685Y-00455
X0051Y-0044
X00465Y-00475
X0065Y-00625
X0078Y-00845
X00625Y-0121
T02
X0005Y-0095
Y-0085
Y-0075
Y-0065
Y-0055
Y-0045
Y-0035
Y-0025
X005581Y-00085
X00755
X0095Y-0025
Y-0035
Y-0045
Y-0055
Y-0065
Y-0075
Y-0085
Y-0095
X00375Y-0092
Y-0082
M30
