G04*
G04 #@! TF.GenerationSoftware,Altium Limited,Altium Designer,19.1.7 (138)*
G04*
G04 Layer_Color=8388736*
%FSLAX24Y24*%
%MOIN*%
G70*
G01*
G75*
%ADD20R,0.0572X0.0375*%
%ADD21R,0.0458X0.0627*%
%ADD22R,0.1300X0.0769*%
%ADD23R,0.1218X0.0836*%
%ADD24R,0.0631X0.0454*%
%ADD25R,0.0680X0.0336*%
%ADD26R,0.0454X0.0631*%
%ADD27C,0.0730*%
%ADD28R,0.0730X0.0730*%
%ADD29C,0.0280*%
D20*
X4850Y-9250D02*
D03*
X6150D02*
D03*
Y-10550D02*
D03*
X4850D02*
D03*
X8350D02*
D03*
X7050D02*
D03*
Y-9250D02*
D03*
X8350D02*
D03*
X7250Y-8450D02*
D03*
X5950D02*
D03*
D21*
X6231Y-11450D02*
D03*
X6869D02*
D03*
X1528Y-8500D02*
D03*
X2166D02*
D03*
X1528Y-9500D02*
D03*
X2166D02*
D03*
D22*
X5500Y-6508D02*
D03*
Y-7492D02*
D03*
X7600Y-6508D02*
D03*
Y-7492D02*
D03*
D23*
X5500Y-3446D02*
D03*
Y-5454D02*
D03*
X7650Y-3446D02*
D03*
Y-5454D02*
D03*
D24*
X4100Y-6176D02*
D03*
Y-6924D02*
D03*
D25*
X4068Y-3700D02*
D03*
Y-4200D02*
D03*
Y-4700D02*
D03*
Y-5200D02*
D03*
X1932D02*
D03*
Y-4700D02*
D03*
Y-4200D02*
D03*
Y-3700D02*
D03*
D26*
X2274Y-10250D02*
D03*
X1526D02*
D03*
X2274Y-11050D02*
D03*
X1526D02*
D03*
D27*
X3750Y-9200D02*
D03*
X5581Y-850D02*
D03*
X7550D02*
D03*
X9500Y-2500D02*
D03*
Y-3500D02*
D03*
Y-4500D02*
D03*
Y-5500D02*
D03*
Y-6500D02*
D03*
Y-7500D02*
D03*
Y-8500D02*
D03*
X500Y-2500D02*
D03*
Y-3500D02*
D03*
Y-4500D02*
D03*
Y-5500D02*
D03*
Y-6500D02*
D03*
Y-7500D02*
D03*
Y-8500D02*
D03*
D28*
X3750Y-8200D02*
D03*
X9500Y-9500D02*
D03*
X500D02*
D03*
D29*
X5100Y-4400D02*
D03*
X4650Y-4750D02*
D03*
X3300Y-3800D02*
D03*
X3250Y-4800D02*
D03*
X2550Y-4850D02*
D03*
X1850Y-9000D02*
D03*
X1950Y-2750D02*
D03*
X2450Y-3000D02*
D03*
X6300Y-3050D02*
D03*
X6950Y-2850D02*
D03*
X6850Y-4550D02*
D03*
X2200Y-7750D02*
D03*
X1700Y-7550D02*
D03*
X2200Y-7100D02*
D03*
X1300Y-2800D02*
D03*
X6250Y-12100D02*
D03*
X4000Y-10550D02*
D03*
X7800Y-8450D02*
D03*
X1100Y-8000D02*
D03*
X2750Y-11050D02*
D03*
Y-10250D02*
D03*
X3200Y-7076D02*
D03*
X6500Y-6250D02*
D03*
M02*
