G04*
G04 #@! TF.GenerationSoftware,Altium Limited,Altium Designer,19.1.7 (138)*
G04*
G04 Layer_Color=65535*
%FSLAX24Y24*%
%MOIN*%
G70*
G01*
G75*
%ADD10C,0.0079*%
%ADD11C,0.0039*%
%ADD12C,0.0050*%
D10*
X4250Y-9700D02*
Y-8200D01*
X3250Y-9700D02*
X4250D01*
X3250D02*
Y-7700D01*
X3750D01*
X4969Y-8945D02*
X6032D01*
X4969Y-9555D02*
X6396D01*
X4969Y-10855D02*
X6032D01*
X4604Y-10245D02*
X6032D01*
X7168Y-10855D02*
X8231D01*
X6804Y-10245D02*
X8231D01*
X7168Y-8945D02*
X8231D01*
X7168Y-9555D02*
X8596D01*
X6069Y-8755D02*
X7132D01*
X5704Y-8145D02*
X7132D01*
X9000Y-9500D02*
Y-2000D01*
X10000D01*
Y-10000D02*
Y-2000D01*
X9500Y-10000D02*
X10000D01*
X0Y-9500D02*
Y-2000D01*
X1000D01*
Y-10000D02*
Y-2000D01*
X500Y-10000D02*
X1000D01*
X1632Y-3434D02*
X2232D01*
X2370Y-5415D02*
Y-3485D01*
Y-5415D02*
X3630D01*
Y-3485D01*
X2370D02*
X3630D01*
D11*
X8534Y-2464D02*
Y764D01*
X4597Y-2464D02*
X8534D01*
X4597D02*
Y764D01*
X8534D01*
D12*
X2883Y-7700D02*
X2817D01*
X2850D01*
Y-7867D01*
X2817Y-7900D01*
X2783D01*
X2750Y-7867D01*
X3050Y-7900D02*
Y-7700D01*
X2950Y-7800D01*
X3083D01*
X3883Y-150D02*
X3817D01*
X3850D01*
Y-317D01*
X3817Y-350D01*
X3783D01*
X3750Y-317D01*
X3950Y-183D02*
X3983Y-150D01*
X4050D01*
X4083Y-183D01*
Y-217D01*
X4050Y-250D01*
X4017D01*
X4050D01*
X4083Y-283D01*
Y-317D01*
X4050Y-350D01*
X3983D01*
X3950Y-317D01*
X4400Y-8800D02*
Y-9000D01*
X4500D01*
X4533Y-8967D01*
Y-8833D01*
X4500Y-8800D01*
X4400D01*
X4733Y-9000D02*
X4600D01*
X4733Y-8867D01*
Y-8833D01*
X4700Y-8800D01*
X4633D01*
X4600Y-8833D01*
X5783Y-11333D02*
X5750Y-11300D01*
X5683D01*
X5650Y-11333D01*
Y-11467D01*
X5683Y-11500D01*
X5750D01*
X5783Y-11467D01*
X5850Y-11500D02*
X5917D01*
X5883D01*
Y-11300D01*
X5850Y-11333D01*
X3850Y-10700D02*
Y-10900D01*
X3950D01*
X3983Y-10867D01*
Y-10733D01*
X3950Y-10700D01*
X3850D01*
X4050Y-10733D02*
X4083Y-10700D01*
X4150D01*
X4183Y-10733D01*
Y-10767D01*
X4150Y-10800D01*
X4117D01*
X4150D01*
X4183Y-10833D01*
Y-10867D01*
X4150Y-10900D01*
X4083D01*
X4050Y-10867D01*
X8750Y-10450D02*
Y-10650D01*
X8850D01*
X8883Y-10617D01*
Y-10483D01*
X8850Y-10450D01*
X8750D01*
X9050Y-10650D02*
Y-10450D01*
X8950Y-10550D01*
X9083D01*
X7650Y-9700D02*
Y-9900D01*
X7750D01*
X7783Y-9867D01*
Y-9733D01*
X7750Y-9700D01*
X7650D01*
X7983D02*
X7917Y-9733D01*
X7850Y-9800D01*
Y-9867D01*
X7883Y-9900D01*
X7950D01*
X7983Y-9867D01*
Y-9833D01*
X7950Y-9800D01*
X7850D01*
X5200Y-8300D02*
Y-8500D01*
X5300D01*
X5333Y-8467D01*
Y-8333D01*
X5300Y-8300D01*
X5200D01*
X5533D02*
X5400D01*
Y-8400D01*
X5467Y-8367D01*
X5500D01*
X5533Y-8400D01*
Y-8467D01*
X5500Y-8500D01*
X5433D01*
X5400Y-8467D01*
X4500Y-6100D02*
Y-6300D01*
X4633D01*
X4700D02*
X4767D01*
X4733D01*
Y-6100D01*
X4700Y-6133D01*
X8300Y-6100D02*
Y-6300D01*
X8433D01*
X8633D02*
X8500D01*
X8633Y-6167D01*
Y-6133D01*
X8600Y-6100D01*
X8533D01*
X8500Y-6133D01*
X5933Y-2750D02*
X5800D01*
Y-2850D01*
X5867D01*
X5800D01*
Y-2950D01*
X6000D02*
X6067D01*
X6033D01*
Y-2750D01*
X6000Y-2783D01*
X7933Y-2750D02*
X7800D01*
Y-2850D01*
X7867D01*
X7800D01*
Y-2950D01*
X8133D02*
X8000D01*
X8133Y-2817D01*
Y-2783D01*
X8100Y-2750D01*
X8033D01*
X8000Y-2783D01*
X9483Y-1550D02*
X9417D01*
X9450D01*
Y-1717D01*
X9417Y-1750D01*
X9383D01*
X9350Y-1717D01*
X9550Y-1750D02*
X9617D01*
X9583D01*
Y-1550D01*
X9550Y-1583D01*
X3900Y-5900D02*
Y-5700D01*
X4000D01*
X4033Y-5733D01*
Y-5800D01*
X4000Y-5833D01*
X3900D01*
X3967D02*
X4033Y-5900D01*
X4233Y-5700D02*
X4100D01*
Y-5800D01*
X4167Y-5767D01*
X4200D01*
X4233Y-5800D01*
Y-5867D01*
X4200Y-5900D01*
X4133D01*
X4100Y-5867D01*
X433Y-1600D02*
X367D01*
X400D01*
Y-1767D01*
X367Y-1800D01*
X333D01*
X300Y-1767D01*
X633Y-1800D02*
X500D01*
X633Y-1667D01*
Y-1633D01*
X600Y-1600D01*
X533D01*
X500Y-1633D01*
X1650Y-3050D02*
X1717D01*
X1683D01*
Y-3250D01*
X1650D01*
X1717D01*
X1950Y-3083D02*
X1917Y-3050D01*
X1850D01*
X1817Y-3083D01*
Y-3217D01*
X1850Y-3250D01*
X1917D01*
X1950Y-3217D01*
X2150Y-3250D02*
X2017D01*
X2150Y-3117D01*
Y-3083D01*
X2117Y-3050D01*
X2050D01*
X2017Y-3083D01*
X2633Y-8433D02*
X2600Y-8400D01*
X2533D01*
X2500Y-8433D01*
Y-8567D01*
X2533Y-8600D01*
X2600D01*
X2633Y-8567D01*
X2700Y-8433D02*
X2733Y-8400D01*
X2800D01*
X2833Y-8433D01*
Y-8467D01*
X2800Y-8500D01*
X2767D01*
X2800D01*
X2833Y-8533D01*
Y-8567D01*
X2800Y-8600D01*
X2733D01*
X2700Y-8567D01*
X2683Y-9433D02*
X2650Y-9400D01*
X2583D01*
X2550Y-9433D01*
Y-9567D01*
X2583Y-9600D01*
X2650D01*
X2683Y-9567D01*
X2850Y-9600D02*
Y-9400D01*
X2750Y-9500D01*
X2883D01*
X850Y-10400D02*
Y-10200D01*
X950D01*
X983Y-10233D01*
Y-10300D01*
X950Y-10333D01*
X850D01*
X917D02*
X983Y-10400D01*
X1150D02*
Y-10200D01*
X1050Y-10300D01*
X1183D01*
X850Y-11150D02*
Y-10950D01*
X950D01*
X983Y-10983D01*
Y-11050D01*
X950Y-11083D01*
X850D01*
X917D02*
X983Y-11150D01*
X1050Y-10983D02*
X1083Y-10950D01*
X1150D01*
X1183Y-10983D01*
Y-11017D01*
X1150Y-11050D01*
X1117D01*
X1150D01*
X1183Y-11083D01*
Y-11117D01*
X1150Y-11150D01*
X1083D01*
X1050Y-11117D01*
M02*
